<mxfile host="65bd71144e">
    <diagram id="EYCZHQbELB68aXG12WUF" name="Page-1">
        <mxGraphModel dx="758" dy="166" grid="1" gridSize="10" guides="1" tooltips="1" connect="1" arrows="1" fold="1" page="1" pageScale="1" pageWidth="850" pageHeight="1100" math="0" shadow="0">
            <root>
                <mxCell id="0"/>
                <mxCell id="1" parent="0"/>
                <mxCell id="3" value="" style="rounded=0;whiteSpace=wrap;html=1;fillColor=none;strokeWidth=3;" vertex="1" parent="1">
                    <mxGeometry x="358" y="240" width="42" height="160" as="geometry"/>
                </mxCell>
                <mxCell id="4" value="" style="rounded=0;whiteSpace=wrap;html=1;gradientColor=none;fillColor=none;strokeWidth=3;" vertex="1" parent="1">
                    <mxGeometry x="238" y="120" width="400" height="40" as="geometry"/>
                </mxCell>
                <mxCell id="5" value="2" style="text;html=1;strokeColor=none;fillColor=none;align=center;verticalAlign=middle;whiteSpace=wrap;rounded=0;strokeWidth=3;" vertex="1" parent="1">
                    <mxGeometry x="228" y="130" width="60" height="30" as="geometry"/>
                </mxCell>
                <mxCell id="6" value="4" style="text;html=1;strokeColor=none;fillColor=none;align=center;verticalAlign=middle;whiteSpace=wrap;rounded=0;strokeWidth=3;" vertex="1" parent="1">
                    <mxGeometry x="268" y="130" width="60" height="30" as="geometry"/>
                </mxCell>
                <mxCell id="7" value="6" style="text;html=1;strokeColor=none;fillColor=none;align=center;verticalAlign=middle;whiteSpace=wrap;rounded=0;strokeWidth=3;" vertex="1" parent="1">
                    <mxGeometry x="308" y="130" width="60" height="30" as="geometry"/>
                </mxCell>
                <mxCell id="8" value="8" style="text;html=1;strokeColor=none;fillColor=none;align=center;verticalAlign=middle;whiteSpace=wrap;rounded=0;strokeWidth=3;" vertex="1" parent="1">
                    <mxGeometry x="348" y="130" width="60" height="30" as="geometry"/>
                </mxCell>
                <mxCell id="9" value="10" style="text;html=1;strokeColor=none;fillColor=none;align=center;verticalAlign=middle;whiteSpace=wrap;rounded=0;strokeWidth=3;" vertex="1" parent="1">
                    <mxGeometry x="388" y="130" width="60" height="30" as="geometry"/>
                </mxCell>
                <mxCell id="10" value="12" style="text;html=1;strokeColor=none;fillColor=none;align=center;verticalAlign=middle;whiteSpace=wrap;rounded=0;strokeWidth=3;" vertex="1" parent="1">
                    <mxGeometry x="428" y="130" width="60" height="30" as="geometry"/>
                </mxCell>
                <mxCell id="11" value="14" style="text;html=1;strokeColor=none;fillColor=none;align=center;verticalAlign=middle;whiteSpace=wrap;rounded=0;strokeWidth=3;" vertex="1" parent="1">
                    <mxGeometry x="468" y="130" width="60" height="30" as="geometry"/>
                </mxCell>
                <mxCell id="12" value="16" style="text;html=1;strokeColor=none;fillColor=none;align=center;verticalAlign=middle;whiteSpace=wrap;rounded=0;strokeWidth=3;" vertex="1" parent="1">
                    <mxGeometry x="513" y="130" width="60" height="30" as="geometry"/>
                </mxCell>
                <mxCell id="13" value="18" style="text;html=1;strokeColor=none;fillColor=none;align=center;verticalAlign=middle;whiteSpace=wrap;rounded=0;strokeWidth=3;" vertex="1" parent="1">
                    <mxGeometry x="543" y="130" width="60" height="30" as="geometry"/>
                </mxCell>
                <mxCell id="14" value="20" style="text;html=1;strokeColor=none;fillColor=none;align=center;verticalAlign=middle;whiteSpace=wrap;rounded=0;strokeWidth=3;" vertex="1" parent="1">
                    <mxGeometry x="588" y="130" width="60" height="30" as="geometry"/>
                </mxCell>
                <mxCell id="15" value="" style="edgeStyle=none;orthogonalLoop=1;jettySize=auto;html=1;exitX=0.042;exitY=1.133;exitDx=0;exitDy=0;exitPerimeter=0;" edge="1" parent="1">
                    <mxGeometry width="100" relative="1" as="geometry">
                        <mxPoint x="615.8" y="161.32000000000005" as="sourcePoint"/>
                        <mxPoint x="616" y="200" as="targetPoint"/>
                        <Array as="points"/>
                    </mxGeometry>
                </mxCell>
                <mxCell id="16" value="Rare" style="text;html=1;align=center;verticalAlign=middle;resizable=0;points=[];autosize=1;strokeColor=none;fillColor=none;" vertex="1" parent="1">
                    <mxGeometry x="591" y="195" width="50" height="30" as="geometry"/>
                </mxCell>
                <mxCell id="17" value="Q" style="text;html=1;align=center;verticalAlign=middle;resizable=0;points=[];autosize=1;strokeColor=none;fillColor=none;fontSize=28;fontStyle=1" vertex="1" parent="1">
                    <mxGeometry x="180" y="115" width="50" height="50" as="geometry"/>
                </mxCell>
                <mxCell id="18" value="" style="edgeStyle=none;orthogonalLoop=1;jettySize=auto;html=1;fontSize=28;" edge="1" parent="1">
                    <mxGeometry width="100" relative="1" as="geometry">
                        <mxPoint x="204.5" y="165" as="sourcePoint"/>
                        <mxPoint x="204.5" y="205" as="targetPoint"/>
                        <Array as="points"/>
                    </mxGeometry>
                </mxCell>
                <mxCell id="19" value="Front" style="text;html=1;align=center;verticalAlign=middle;resizable=0;points=[];autosize=1;strokeColor=none;fillColor=none;" vertex="1" parent="1">
                    <mxGeometry x="178" y="195" width="50" height="30" as="geometry"/>
                </mxCell>
                <mxCell id="20" value="-1" style="text;html=1;align=center;verticalAlign=middle;resizable=0;points=[];autosize=1;strokeColor=none;fillColor=none;fontSize=14;fontStyle=1" vertex="1" parent="1">
                    <mxGeometry x="175" y="150" width="40" height="30" as="geometry"/>
                </mxCell>
                <mxCell id="21" value="size" style="text;html=1;align=center;verticalAlign=middle;resizable=0;points=[];autosize=1;strokeColor=none;fillColor=none;" vertex="1" parent="1">
                    <mxGeometry x="358" y="250" width="40" height="30" as="geometry"/>
                </mxCell>
                <mxCell id="22" value="Struct&amp;nbsp; Queue {&lt;br style=&quot;font-size: 16px;&quot;&gt;int size;&lt;br style=&quot;font-size: 16px;&quot;&gt;int front;&lt;br style=&quot;font-size: 16px;&quot;&gt;int rare;&lt;br style=&quot;font-size: 16px;&quot;&gt;int *Q;&lt;br style=&quot;font-size: 16px;&quot;&gt;}" style="text;html=1;align=center;verticalAlign=middle;resizable=0;points=[];autosize=1;strokeColor=none;fillColor=none;fontSize=16;" vertex="1" parent="1">
                    <mxGeometry x="138" y="240" width="130" height="130" as="geometry"/>
                </mxCell>
                <mxCell id="23" value="front" style="text;html=1;align=center;verticalAlign=middle;resizable=0;points=[];autosize=1;strokeColor=none;fillColor=none;" vertex="1" parent="1">
                    <mxGeometry x="354" y="284" width="50" height="30" as="geometry"/>
                </mxCell>
                <mxCell id="24" value="rare" style="text;html=1;align=center;verticalAlign=middle;resizable=0;points=[];autosize=1;strokeColor=none;fillColor=none;" vertex="1" parent="1">
                    <mxGeometry x="359" y="323" width="40" height="30" as="geometry"/>
                </mxCell>
                <mxCell id="25" value="" style="edgeStyle=none;html=1;fontSize=16;entryX=0;entryY=0.25;entryDx=0;entryDy=0;" edge="1" parent="1" source="26" target="28">
                    <mxGeometry relative="1" as="geometry">
                        <mxPoint x="500" y="420" as="targetPoint"/>
                        <Array as="points">
                            <mxPoint x="450" y="380"/>
                        </Array>
                    </mxGeometry>
                </mxCell>
                <mxCell id="26" value="*Q" style="text;html=1;align=center;verticalAlign=middle;resizable=0;points=[];autosize=1;strokeColor=none;fillColor=none;" vertex="1" parent="1">
                    <mxGeometry x="360" y="363" width="40" height="30" as="geometry"/>
                </mxCell>
                <mxCell id="27" value="" style="rounded=0;whiteSpace=wrap;html=1;gradientColor=none;fillColor=none;strokeWidth=3;" vertex="1" parent="1">
                    <mxGeometry x="520" y="396" width="400" height="40" as="geometry"/>
                </mxCell>
                <mxCell id="28" value="2" style="text;html=1;strokeColor=none;fillColor=none;align=center;verticalAlign=middle;whiteSpace=wrap;rounded=0;strokeWidth=3;" vertex="1" parent="1">
                    <mxGeometry x="510" y="405" width="60" height="30" as="geometry"/>
                </mxCell>
                <mxCell id="29" value="4" style="text;html=1;strokeColor=none;fillColor=none;align=center;verticalAlign=middle;whiteSpace=wrap;rounded=0;strokeWidth=3;" vertex="1" parent="1">
                    <mxGeometry x="550" y="405" width="60" height="30" as="geometry"/>
                </mxCell>
                <mxCell id="30" value="6" style="text;html=1;strokeColor=none;fillColor=none;align=center;verticalAlign=middle;whiteSpace=wrap;rounded=0;strokeWidth=3;" vertex="1" parent="1">
                    <mxGeometry x="590" y="405" width="60" height="30" as="geometry"/>
                </mxCell>
                <mxCell id="31" value="8" style="text;html=1;strokeColor=none;fillColor=none;align=center;verticalAlign=middle;whiteSpace=wrap;rounded=0;strokeWidth=3;" vertex="1" parent="1">
                    <mxGeometry x="630" y="405" width="60" height="30" as="geometry"/>
                </mxCell>
                <mxCell id="32" value="10" style="text;html=1;strokeColor=none;fillColor=none;align=center;verticalAlign=middle;whiteSpace=wrap;rounded=0;strokeWidth=3;" vertex="1" parent="1">
                    <mxGeometry x="670" y="405" width="60" height="30" as="geometry"/>
                </mxCell>
                <mxCell id="33" value="12" style="text;html=1;strokeColor=none;fillColor=none;align=center;verticalAlign=middle;whiteSpace=wrap;rounded=0;strokeWidth=3;" vertex="1" parent="1">
                    <mxGeometry x="710" y="405" width="60" height="30" as="geometry"/>
                </mxCell>
                <mxCell id="34" value="14" style="text;html=1;strokeColor=none;fillColor=none;align=center;verticalAlign=middle;whiteSpace=wrap;rounded=0;strokeWidth=3;" vertex="1" parent="1">
                    <mxGeometry x="750" y="405" width="60" height="30" as="geometry"/>
                </mxCell>
                <mxCell id="35" value="16" style="text;html=1;strokeColor=none;fillColor=none;align=center;verticalAlign=middle;whiteSpace=wrap;rounded=0;strokeWidth=3;" vertex="1" parent="1">
                    <mxGeometry x="795" y="405" width="60" height="30" as="geometry"/>
                </mxCell>
                <mxCell id="36" value="18" style="text;html=1;strokeColor=none;fillColor=none;align=center;verticalAlign=middle;whiteSpace=wrap;rounded=0;strokeWidth=3;" vertex="1" parent="1">
                    <mxGeometry x="832" y="405" width="60" height="30" as="geometry"/>
                </mxCell>
                <mxCell id="37" value="20" style="text;html=1;strokeColor=none;fillColor=none;align=center;verticalAlign=middle;whiteSpace=wrap;rounded=0;strokeWidth=3;" vertex="1" parent="1">
                    <mxGeometry x="870" y="405" width="60" height="30" as="geometry"/>
                </mxCell>
                <mxCell id="38" value="Front" style="text;html=1;align=center;verticalAlign=middle;resizable=0;points=[];autosize=1;strokeColor=none;fillColor=none;" vertex="1" parent="1">
                    <mxGeometry x="873" y="290" width="50" height="30" as="geometry"/>
                </mxCell>
                <mxCell id="39" value="" style="edgeStyle=none;orthogonalLoop=1;jettySize=auto;html=1;fontSize=16;" edge="1" parent="1">
                    <mxGeometry width="100" relative="1" as="geometry">
                        <mxPoint x="900" y="393" as="sourcePoint"/>
                        <mxPoint x="900" y="320" as="targetPoint"/>
                        <Array as="points"/>
                    </mxGeometry>
                </mxCell>
            </root>
        </mxGraphModel>
    </diagram>
</mxfile>